<svg width="34" height="34" viewBox="0 0 34 34" fill="none" xmlns="http://www.w3.org/2000/svg">
<rect width="34" height="34" rx="17" fill="#2CB875"/>
<path d="M22.8333 24.5H11.1667C8.86917 24.5 7 22.6308 7 20.3333V19.565C7 19.105 7.37333 18.7317 7.83333 18.7317C7.85333 18.7317 7.8775 18.7325 7.90167 18.7342C8.82333 18.7167 9.56833 17.9608 9.56833 17.0342C9.56833 16.1075 8.82333 15.3508 7.90167 15.3333C7.8775 15.335 7.85333 15.3358 7.83417 15.3358C7.37417 15.3358 7.00083 14.9625 7.00083 14.5025V13.6658C7 11.3692 8.86917 9.5 11.1667 9.5H22.8333C25.1308 9.5 27 11.3692 27 13.6667V14.5C27 14.96 26.6267 15.3333 26.1667 15.3333C25.2475 15.3333 24.5 16.0808 24.5 17C24.5 17.9192 25.2475 18.6667 26.1667 18.6667C26.6267 18.6667 27 19.04 27 19.5V20.3333C27 22.6308 25.1308 24.5 22.8333 24.5ZM8.66667 20.3058V20.3333C8.66667 21.7117 9.78833 22.8333 11.1667 22.8333H22.8333C24.2117 22.8333 25.3333 21.7117 25.3333 20.3333V20.2283C23.8975 19.8575 22.8333 18.5508 22.8333 17C22.8333 15.4492 23.8975 14.1433 25.3333 13.7717V13.6667C25.3333 12.2883 24.2117 11.1667 22.8333 11.1667H11.1667C9.78833 11.1667 8.66667 12.2883 8.66667 13.6667V13.7625C10.1392 14.1225 11.235 15.4525 11.235 17.0342C11.235 18.6158 10.1392 19.9458 8.66667 20.3058Z" fill="white"/>
</svg>
