<svg width="22" height="22" viewBox="0 0 22 22" fill="none" xmlns="http://www.w3.org/2000/svg">
<g clip-path="url(#clip0_115_210)">
<path d="M10.6663 10.6667C11.7212 10.6667 12.7523 10.3539 13.6294 9.76784C14.5064 9.18181 15.19 8.34885 15.5937 7.37431C15.9974 6.39977 16.103 5.32742 15.8972 4.29285C15.6914 3.25829 15.1835 2.30798 14.4376 1.5621C13.6917 0.816219 12.7414 0.308269 11.7068 0.102481C10.6723 -0.103307 9.5999 0.00231086 8.62536 0.405978C7.65082 0.809646 6.81787 1.49323 6.23184 2.37029C5.6458 3.24736 5.33301 4.2785 5.33301 5.33334C5.33442 6.74739 5.89678 8.10312 6.89666 9.10301C7.89655 10.1029 9.25229 10.6653 10.6663 10.6667ZM10.6663 1.77778C11.3696 1.77778 12.057 1.98631 12.6417 2.377C13.2264 2.76769 13.6821 3.32299 13.9512 3.97268C14.2204 4.62238 14.2908 5.33728 14.1536 6.02699C14.0164 6.7167 13.6778 7.35024 13.1805 7.84749C12.6832 8.34475 12.0497 8.68338 11.36 8.82057C10.6703 8.95776 9.95538 8.88735 9.30569 8.61824C8.656 8.34913 8.10069 7.8934 7.71 7.3087C7.31932 6.72399 7.11079 6.03656 7.11079 5.33334C7.11079 4.39034 7.48539 3.48597 8.15218 2.81918C8.81898 2.15238 9.72335 1.77778 10.6663 1.77778Z" fill="white"/>
<path d="M10.667 12.4443C8.54598 12.4467 6.51252 13.2903 5.01274 14.7901C3.51296 16.2899 2.66934 18.3233 2.66699 20.4443C2.66699 20.6801 2.76064 20.9062 2.92734 21.0729C3.09404 21.2396 3.32013 21.3332 3.55588 21.3332C3.79163 21.3332 4.01772 21.2396 4.18442 21.0729C4.35112 20.9062 4.44477 20.6801 4.44477 20.4443C4.44477 18.7941 5.10032 17.2115 6.26722 16.0446C7.43411 14.8777 9.01676 14.2221 10.667 14.2221C12.3172 14.2221 13.8999 14.8777 15.0668 16.0446C16.2337 17.2115 16.8892 18.7941 16.8892 20.4443C16.8892 20.6801 16.9829 20.9062 17.1496 21.0729C17.3163 21.2396 17.5424 21.3332 17.7781 21.3332C18.0139 21.3332 18.2399 21.2396 18.4066 21.0729C18.5733 20.9062 18.667 20.6801 18.667 20.4443C18.6646 18.3233 17.821 16.2899 16.3212 14.7901C14.8215 13.2903 12.788 12.4467 10.667 12.4443Z" fill="white"/>
</g>
<defs>
<clipPath id="clip0_115_210">
<rect width="21.3333" height="21.3333" fill="white"/>
</clipPath>
</defs>
</svg>
