<svg width="20" height="21" viewBox="0 0 20 21" fill="none" xmlns="http://www.w3.org/2000/svg">
<path d="M3.75 9.25L16.25 9.25C16.5952 9.25 16.875 8.97018 16.875 8.625L16.875 5.5C16.875 5.15482 16.5952 4.875 16.25 4.875L3.75 4.875C3.40482 4.875 3.125 5.15482 3.125 5.5L3.125 8.625C3.125 8.97018 3.40482 9.25 3.75 9.25Z" stroke="#727272" stroke-width="1.5" stroke-linecap="round" stroke-linejoin="round"/>
<path d="M3.75 16.125L16.25 16.125C16.5952 16.125 16.875 15.8452 16.875 15.5L16.875 12.375C16.875 12.0298 16.5952 11.75 16.25 11.75L3.75 11.75C3.40482 11.75 3.125 12.0298 3.125 12.375L3.125 15.5C3.125 15.8452 3.40482 16.125 3.75 16.125Z" stroke="#727272" stroke-width="1.5" stroke-linecap="round" stroke-linejoin="round"/>
</svg>
