<svg width="141" height="44" viewBox="0 0 141 44" fill="none" xmlns="http://www.w3.org/2000/svg">
<path fill-rule="evenodd" clip-rule="evenodd" d="M35.1286 28.9709V15.8122C35.1286 15.1504 34.5927 14.614 33.9312 14.614H31.2683C30.6068 14.614 30.0709 15.1504 30.0709 15.8122V28.9709C30.0709 37.6463 34.5662 43.3171 41.6846 43.3171C44.0214 43.3171 46.1401 42.4035 47.6646 40.9308C48.4252 40.1962 49.6915 40.7313 49.6915 41.7897C49.6915 42.4515 50.2274 42.9879 50.8886 42.9879H53.5518C54.213 42.9879 54.7492 42.4515 54.7492 41.7897V15.8122C54.7492 15.1504 54.213 14.614 53.5518 14.614H50.8886C50.2274 14.614 49.6915 15.1504 49.6915 15.8122V28.928C49.6915 34.3651 46.6947 38.2521 42.5279 38.2521C38.0326 38.2521 35.1286 34.6464 35.1286 28.9709ZM135.703 29.1469V42.317C135.703 42.8903 136.167 43.3553 136.74 43.3553H139.711C140.284 43.3553 140.749 42.8903 140.749 42.317V29.1469C140.749 20.4145 136.269 14.7025 129.054 14.7025C126.574 14.7025 124.34 15.722 122.791 17.3453C122.137 18.0302 120.99 17.5937 120.99 16.6463V1.37779C120.99 0.804506 120.525 0.339844 119.953 0.339844H116.981C116.409 0.339844 115.944 0.804506 115.944 1.37779V42.317C115.944 42.8903 116.409 43.3553 116.981 43.3553H119.953C120.525 43.3553 120.99 42.8903 120.99 42.317V29.1942C120.99 23.7188 124.055 19.7538 128.205 19.7538C132.779 19.7538 135.703 23.4355 135.703 29.1469ZM106.232 29.1469V42.317C106.232 42.8903 106.696 43.3553 107.269 43.3553H110.24C110.813 43.3553 111.278 42.8903 111.278 42.317V29.1469C111.278 20.4145 106.798 14.7025 99.5829 14.7025C97.1039 14.7025 94.8689 15.722 93.3199 17.3453C92.6662 18.0302 91.5191 17.5937 91.5191 16.6463V1.37779C91.5191 0.804506 91.0549 0.339844 90.4818 0.339844H87.5104C86.9377 0.339844 86.4735 0.804506 86.4735 1.37779V42.317C86.4735 42.8903 86.9377 43.3553 87.5104 43.3553H90.4818C91.0549 43.3553 91.5191 42.8903 91.5191 42.317V29.1942C91.5191 23.7188 94.5843 19.7538 98.7339 19.7538C103.308 19.7538 106.232 23.4355 106.232 29.1469ZM20.5073 29.1469V42.317C20.5073 42.8903 20.9715 43.3553 21.5442 43.3553H24.5159C25.0886 43.3553 25.5528 42.8903 25.5528 42.317V29.1469C25.5528 20.4145 21.0733 14.7025 13.8584 14.7025C11.379 14.7025 9.14444 15.722 7.59543 17.3453C6.94167 18.0302 5.79423 17.5937 5.79423 16.6463V1.37779C5.79423 0.804506 5.33003 0.339844 4.75732 0.339844H1.78591C1.21319 0.339844 0.748657 0.804506 0.748657 1.37779V42.317C0.748657 42.8903 1.21319 43.3553 1.78591 43.3553H4.75732C5.33003 43.3553 5.79423 42.8903 5.79423 42.317V29.1942C5.79423 23.7188 8.85975 19.7538 13.0094 19.7538C17.5838 19.7538 20.5073 23.4355 20.5073 29.1469ZM65.0624 23.118L65.0748 23.0356C65.0835 22.9792 65.0929 22.9182 65.0945 22.9058C65.3682 20.6807 67.6955 19.0028 70.5045 19.0028L70.6167 19.0035C73.083 19.0035 74.8387 20.028 75.9831 22.1351C76.1057 22.3604 76.3884 22.4448 76.6138 22.3215C76.8395 22.1988 76.9229 21.9158 76.8003 21.6902C75.4961 19.2898 73.4156 18.0728 70.6207 18.0728L70.5085 18.0718C67.1727 18.0718 64.5077 20.0572 64.1718 22.7878L64.1558 22.8924C64.1477 22.945 64.1403 22.994 64.1393 23.0007C64.1095 23.2535 64.2887 23.4818 64.5412 23.5153C64.5617 23.5177 64.5818 23.519 64.6015 23.519C64.8296 23.519 65.0289 23.3497 65.0624 23.118ZM77.8644 34.4667C77.8644 30.2056 75.0048 29.1543 70.9643 28.1344L70.4827 28.0087C69.3597 27.71 67.4802 27.2105 66.2651 26.0632C66.0782 25.8872 65.7838 25.8963 65.6076 26.0827C65.4315 26.2698 65.4402 26.5644 65.6267 26.7408C67.0133 28.05 69.0359 28.5874 70.2439 28.9082L70.7369 29.0369C74.9496 30.1007 76.9343 30.9831 76.9343 34.4667C76.9343 37.1695 74.3363 39.057 70.6167 39.057C67.8526 39.057 65.4773 37.6798 64.4173 35.4628C64.3065 35.2308 64.0288 35.1322 63.797 35.2435C63.5653 35.3545 63.4675 35.6324 63.5783 35.8644C64.7944 38.408 67.4912 39.988 70.6167 39.988C74.8839 39.988 77.8644 37.7177 77.8644 34.4667ZM74.3079 22.2849C74.4984 22.1129 74.5138 21.8186 74.342 21.6275C73.5057 20.6985 72.4859 20.2248 71.1325 20.1369C70.8789 20.1219 70.6549 20.3143 70.6381 20.5711C70.6214 20.8279 70.816 21.0492 71.0722 21.0659C72.168 21.137 72.9876 21.5135 73.6511 22.2507C73.7425 22.353 73.8694 22.4046 73.9967 22.4046C74.1076 22.4046 74.2188 22.3654 74.3079 22.2849ZM79.0145 37.7958C79.6244 36.7867 79.9335 35.6713 79.9335 34.4798C79.9335 28.5381 75.0052 27.2933 71.4068 26.3847L71.0397 26.2895C69.0191 25.7504 67.2055 25.1188 67.2052 23.3433C67.2129 23.0087 67.2906 22.701 67.4363 22.4274C67.5572 22.2008 67.4715 21.9188 67.2447 21.7975C67.0176 21.6771 66.7366 21.7623 66.6157 21.9896C66.401 22.3919 66.2865 22.8404 66.2751 23.3326C66.2751 25.9821 69.1079 26.7374 70.8002 27.189L71.179 27.2873C74.8464 28.2136 79.0034 29.2632 79.0034 34.4798C79.0034 35.4986 78.7395 36.4524 78.2187 37.314C78.0858 37.534 78.1561 37.8199 78.3758 37.953C78.4508 37.9986 78.5339 38.0204 78.6163 38.0204C78.7733 38.0204 78.9271 37.9406 79.0145 37.7958ZM76.0444 40.5285C76.2711 40.4074 76.3562 40.1251 76.235 39.8985C76.1137 39.6719 75.8324 39.5864 75.6057 39.7078C74.1967 40.4624 72.4715 40.8617 70.6167 40.8617C67.0029 40.8617 63.723 38.929 62.4544 36.0531C62.3911 35.91 62.3502 35.7605 62.3324 35.6093C62.3023 35.3535 62.0705 35.1694 61.8163 35.2013C61.5611 35.2311 61.3786 35.4624 61.4087 35.7176C61.4372 35.9613 61.5028 36.2007 61.6037 36.429C63.0184 39.637 66.6405 41.7924 70.6167 41.7924C72.6242 41.7924 74.5011 41.3555 76.0444 40.5285ZM75.1053 36.6305C75.7051 36.0394 76.0223 35.3106 76.0223 34.5234C76.0223 33.8763 75.8703 33.2853 75.5698 32.7673C75.4101 32.4914 75.2044 32.2296 74.9589 31.9892C74.7751 31.8098 74.4807 31.8128 74.3011 31.9966C74.1216 32.1806 74.125 32.4753 74.3085 32.655C74.4941 32.8364 74.6478 33.0315 74.7654 33.234C74.9854 33.6138 75.0922 34.0356 75.0922 34.5234C75.0922 35.0631 74.8769 35.5489 74.4529 35.967C73.6728 36.7357 72.2836 37.1819 70.744 37.1561C69.8303 37.1431 68.9582 36.9262 68.2213 36.5295C67.6865 36.2416 67.3408 35.8332 67.1121 35.563C67.0682 35.5114 67.0287 35.4648 66.9932 35.4249C66.8227 35.2324 66.529 35.2157 66.3364 35.3867C66.1448 35.5576 66.1278 35.8517 66.2986 36.0438C66.3294 36.079 66.3642 36.1199 66.4024 36.1651C66.6599 36.4692 67.0907 36.9778 67.7806 37.3492C68.648 37.8166 69.6682 38.0717 70.7299 38.0871C70.7738 38.0878 70.817 38.0881 70.8605 38.0881C72.5954 38.0881 74.1749 37.5477 75.1053 36.6305ZM71.1198 30.609C71.1827 30.3599 71.0317 30.1064 70.7825 30.0437C70.4449 29.9586 70.0828 29.8747 69.7064 29.7953C65.0202 28.807 62.9306 26.8357 62.9306 23.4027C62.9306 19.6347 66.0353 17.1026 70.6565 17.1026C73.4227 17.1026 76.9102 18.6524 78.0308 22.0549C78.1109 22.299 78.3745 22.4321 78.6179 22.3516C78.8618 22.2708 78.9944 22.008 78.914 21.7636C77.6487 17.9216 73.7465 16.1719 70.6565 16.1719C65.479 16.1719 62.0002 19.0779 62.0002 23.4027C62.0002 28.5287 66.2889 30.0263 69.5145 30.7062C69.8789 30.7833 70.2289 30.8641 70.5551 30.9462C70.5932 30.9559 70.6314 30.9606 70.6693 30.9606C70.8773 30.9606 71.0665 30.8202 71.1198 30.609ZM81.7364 34.4798C81.7364 31.6402 81.0783 29.7762 79.6019 28.4358C79.412 28.2632 79.1176 28.2779 78.9452 28.4677C78.7727 28.6581 78.7871 28.9525 78.9773 29.1255C80.259 30.2895 80.8063 31.891 80.8063 34.4798C80.8063 39.223 76.521 42.666 70.6167 42.666C66.6023 42.666 62.7337 40.4671 60.9894 37.1947L60.9405 37.1042C60.8062 36.8594 60.5269 36.3498 60.3008 35.5999C60.2265 35.3535 59.9669 35.2137 59.7214 35.2888C59.4752 35.3632 59.3362 35.6227 59.4103 35.8688C59.6645 36.7123 59.9756 37.2798 60.1253 37.5521L60.1685 37.6325C62.0702 41.2 66.2688 43.597 70.6167 43.597C77.0599 43.597 81.7364 39.7631 81.7364 34.4798ZM69.5506 32.3117C69.6196 32.064 69.4753 31.8075 69.2278 31.7381C67.014 31.1185 62.4075 29.8295 61.1817 25.6572C61.1093 25.4108 60.8504 25.269 60.6043 25.3424C60.3577 25.4149 60.2167 25.6737 60.2894 25.9204C61.6609 30.5872 66.7879 32.022 68.9773 32.6349C69.0191 32.6466 69.0613 32.6523 69.1029 32.6523C69.3062 32.6523 69.493 32.5176 69.5506 32.3117ZM60.9656 22.1086C61.607 18.0141 65.3973 15.2965 70.4298 15.2965C70.5025 15.2965 70.5762 15.2972 70.6495 15.2982C70.9141 15.2955 71.1177 15.0971 71.1218 14.8399C71.1258 14.5831 70.9208 14.3716 70.6639 14.3676C65.0403 14.273 60.7724 17.3325 60.0466 21.9641C60.0068 22.2185 60.1802 22.4566 60.4338 22.4961C60.4586 22.5005 60.4827 22.5022 60.5068 22.5022C60.7319 22.5022 60.9295 22.3382 60.9656 22.1086ZM80.4921 22.292C80.2467 22.292 80.0414 22.0995 80.028 21.8511C79.9583 21.2433 78.6558 17.5424 74.5868 16.0029C74.3467 15.9117 74.2255 15.6432 74.3162 15.4025C74.407 15.1624 74.6753 15.0411 74.9157 15.1316C79.6378 16.9188 80.9259 21.2151 80.957 21.8018C80.9708 22.0583 80.7738 22.2775 80.5173 22.2913C80.5089 22.292 80.5005 22.292 80.4921 22.292Z" fill="url(#paint0_linear_3_613)"/>
<defs>
<linearGradient id="paint0_linear_3_613" x1="140.749" y1="15.9124" x2="48.4014" y2="87.6431" gradientUnits="userSpaceOnUse">
<stop stop-color="#E0055F"/>
<stop offset="1" stop-color="#2020ED"/>
</linearGradient>
</defs>
</svg>
