<svg width="37" height="37" viewBox="0 0 37 37" fill="none" xmlns="http://www.w3.org/2000/svg">
<g clip-path="url(#clip0_17_154)">
<path d="M32.2184 0.971436H5.53794C3.01262 0.971436 0.958191 3.02594 0.958191 5.55126V32.2317C0.958191 34.7569 3.01262 36.8114 5.53794 36.8114H32.2184C34.7438 36.8114 36.7982 34.7569 36.7982 32.2316V5.55126C36.7982 3.02594 34.7438 0.971436 32.2184 0.971436ZM34.6871 32.2317C34.6871 33.593 33.5797 34.7004 32.2184 34.7004H5.53794C4.17665 34.7004 3.06918 33.5929 3.06918 32.2317V28.3812L10.017 22.4696C10.2706 22.2539 10.6405 22.2519 10.8964 22.4644L15.2486 26.0783C15.6682 26.4267 16.2842 26.3982 16.6698 26.0121L27.0109 15.6553C27.1978 15.4681 27.4157 15.4499 27.5294 15.4557C27.6428 15.4615 27.8581 15.502 28.0249 15.7074L34.6872 23.9107L34.6871 32.2317ZM34.6871 20.562L29.6635 14.3764C29.1653 13.7629 28.4269 13.3878 27.6376 13.3473C26.8488 13.3074 26.0754 13.6043 25.517 14.1636L15.8564 23.8391L12.2451 20.8404C11.198 19.9708 9.68572 19.9799 8.64902 20.8619L3.06918 25.6095V5.55126C3.06918 4.18997 4.17665 3.0825 5.53794 3.0825H32.2184C33.5797 3.0825 34.6871 4.18997 34.6871 5.55126V20.562Z" fill="black" fill-opacity="0.16"/>
<path d="M12.2404 5.3811C9.43377 5.3811 7.15051 7.6645 7.15051 10.471C7.15051 13.2776 9.43384 15.5609 12.2404 15.5609C15.047 15.5609 17.3303 13.2776 17.3303 10.471C17.3303 7.66443 15.0471 5.3811 12.2404 5.3811ZM12.2404 13.4499C10.5978 13.4499 9.2615 12.1136 9.2615 10.471C9.2615 8.82839 10.5978 7.49209 12.2404 7.49209C13.883 7.49209 15.2193 8.82846 15.2193 10.471C15.2193 12.1136 13.883 13.4499 12.2404 13.4499Z" fill="black" fill-opacity="0.16"/>
</g>
<defs>
<clipPath id="clip0_17_154">
<rect width="35.84" height="35.84" fill="white" transform="translate(0.958191 0.971436)"/>
</clipPath>
</defs>
</svg>
