<svg width="141" height="44" viewBox="0 0 141 44" fill="none" xmlns="http://www.w3.org/2000/svg">
<path fill-rule="evenodd" clip-rule="evenodd" d="M35.1284 28.653V15.4943C35.1284 14.8325 34.5926 14.2961 33.9311 14.2961H31.2681C30.6067 14.2961 30.0708 14.8325 30.0708 15.4943V28.653C30.0708 37.3284 34.5661 42.9992 41.6845 42.9992C44.0212 42.9992 46.1399 42.0857 47.6645 40.6129C48.4251 39.8783 49.6914 40.4134 49.6914 41.4718C49.6914 42.1336 50.2273 42.67 50.8884 42.67H53.5517C54.2129 42.67 54.7491 42.1336 54.7491 41.4718V15.4943C54.7491 14.8325 54.2129 14.2961 53.5517 14.2961H50.8884C50.2273 14.2961 49.6914 14.8325 49.6914 15.4943V28.6101C49.6914 34.0473 46.6946 37.9342 42.5278 37.9342C38.0325 37.9342 35.1284 34.3285 35.1284 28.653ZM135.703 28.829V41.9992C135.703 42.5724 136.167 43.0374 136.74 43.0374H139.711C140.284 43.0374 140.749 42.5724 140.749 41.9992V28.829C140.749 20.0967 136.269 14.3846 129.054 14.3846C126.574 14.3846 124.34 15.4041 122.791 17.0274C122.137 17.7123 120.99 17.2758 120.99 16.3284V1.05992C120.99 0.486635 120.525 0.0219727 119.953 0.0219727H116.981C116.409 0.0219727 115.944 0.486635 115.944 1.05992V41.9992C115.944 42.5724 116.409 43.0374 116.981 43.0374H119.953C120.525 43.0374 120.99 42.5724 120.99 41.9992V28.8763C120.99 23.4009 124.055 19.4359 128.205 19.4359C132.779 19.4359 135.703 23.1176 135.703 28.829ZM106.232 28.829V41.9992C106.232 42.5724 106.696 43.0374 107.269 43.0374H110.24C110.813 43.0374 111.278 42.5724 111.278 41.9992V28.829C111.278 20.0967 106.798 14.3846 99.5828 14.3846C97.1037 14.3846 94.8688 15.4041 93.3198 17.0274C92.666 17.7123 91.5189 17.2758 91.5189 16.3284V1.05992C91.5189 0.486635 91.0547 0.0219727 90.4817 0.0219727H87.5103C86.9376 0.0219727 86.4734 0.486635 86.4734 1.05992V41.9992C86.4734 42.5724 86.9376 43.0374 87.5103 43.0374H90.4817C91.0547 43.0374 91.5189 42.5724 91.5189 41.9992V28.8763C91.5189 23.4009 94.5841 19.4359 98.7338 19.4359C103.308 19.4359 106.232 23.1176 106.232 28.829ZM20.5072 28.829V41.9992C20.5072 42.5724 20.9713 43.0374 21.5441 43.0374H24.5158C25.0885 43.0374 25.5527 42.5724 25.5527 41.9992V28.829C25.5527 20.0967 21.0732 14.3846 13.8583 14.3846C11.3789 14.3846 9.14431 15.4041 7.59531 17.0274C6.94155 17.7123 5.79411 17.2758 5.79411 16.3284V1.05992C5.79411 0.486635 5.32991 0.0219727 4.75719 0.0219727H1.78578C1.21307 0.0219727 0.748535 0.486635 0.748535 1.05992V41.9992C0.748535 42.5724 1.21307 43.0374 1.78578 43.0374H4.75719C5.32991 43.0374 5.79411 42.5724 5.79411 41.9992V28.8763C5.79411 23.4009 8.85963 19.4359 13.0093 19.4359C17.5836 19.4359 20.5072 23.1176 20.5072 28.829ZM65.0623 22.8002L65.0746 22.7177C65.0834 22.6614 65.0927 22.6003 65.0944 22.5879C65.368 20.3629 67.6954 18.6849 70.5044 18.6849L70.6166 18.6856C73.0829 18.6856 74.8386 19.7101 75.983 21.8172C76.1056 22.0425 76.3883 22.127 76.6137 22.0036C76.8394 21.8809 76.9228 21.5979 76.8002 21.3723C75.496 18.9719 73.4155 17.7549 70.6206 17.7549L70.5084 17.7539C67.1726 17.7539 64.5076 19.7393 64.1717 22.4699L64.1556 22.5745C64.1476 22.6272 64.1402 22.6761 64.1392 22.6828C64.1094 22.9356 64.2886 23.1639 64.5411 23.1974C64.5616 23.1998 64.5816 23.2011 64.6014 23.2011C64.8295 23.2011 65.0288 23.0318 65.0623 22.8002ZM77.8642 34.1489C77.8642 29.8878 75.0047 28.8364 70.9642 27.8166L70.4826 27.6908C69.3596 27.3921 67.48 26.8926 66.265 25.7454C66.0781 25.5694 65.7837 25.5784 65.6075 25.7648C65.4313 25.9519 65.44 26.2466 65.6266 26.4229C67.0132 27.7321 69.0358 28.2695 70.2438 28.5903L70.7368 28.7191C74.9494 29.7828 76.9342 30.6652 76.9342 34.1489C76.9342 36.8517 74.3362 38.7392 70.6166 38.7392C67.8525 38.7392 65.4772 37.3619 64.4172 35.1449C64.3063 34.9129 64.0287 34.8143 63.7969 34.9256C63.5652 35.0366 63.4674 35.3145 63.5782 35.5465C64.7943 38.0901 67.4911 39.6702 70.6166 39.6702C74.8838 39.6702 77.8642 37.3998 77.8642 34.1489ZM74.3077 21.9671C74.4983 21.7951 74.5137 21.5007 74.3419 21.3096C73.5056 20.3806 72.4858 19.9069 71.1323 19.8191C70.8788 19.804 70.6548 19.9964 70.638 20.2532C70.6213 20.51 70.8158 20.7313 71.0721 20.7481C72.1679 20.8191 72.9875 21.1956 73.6509 21.9329C73.7424 22.0351 73.8693 22.0867 73.9966 22.0867C74.1075 22.0867 74.2186 22.0475 74.3077 21.9671ZM79.0144 37.4779C79.6243 36.4688 79.9334 35.3534 79.9334 34.1619C79.9334 28.2202 75.005 26.9754 71.4066 26.0669L71.0396 25.9717C69.019 25.4326 67.2054 24.801 67.2051 23.0254C67.2128 22.6909 67.2905 22.3831 67.4362 22.1095C67.5571 21.8829 67.4713 21.601 67.2446 21.4796C67.0175 21.3592 66.7365 21.4444 66.6156 21.6717C66.4009 22.074 66.2864 22.5226 66.275 23.0147C66.275 25.6642 69.1077 26.4196 70.8001 26.8711L71.1789 26.9694C74.8463 27.8957 79.0033 28.9454 79.0033 34.1619C79.0033 35.1808 78.7394 36.1346 78.2186 36.9962C78.0856 37.2161 78.156 37.5021 78.3757 37.6352C78.4507 37.6808 78.5337 37.7025 78.6161 37.7025C78.7732 37.7025 78.9269 37.6228 79.0144 37.4779ZM76.0443 40.2106C76.271 40.0896 76.3561 39.8073 76.2349 39.5806C76.1136 39.354 75.8323 39.2685 75.6055 39.3899C74.1965 40.1445 72.4714 40.5438 70.6166 40.5438C67.0028 40.5438 63.7229 38.6111 62.4542 35.7353C62.3909 35.5921 62.3501 35.4426 62.3323 35.2914C62.3022 35.0356 62.0704 34.8515 61.8162 34.8834C61.561 34.9132 61.3785 35.1446 61.4086 35.3997C61.4371 35.6434 61.5027 35.8828 61.6035 36.1111C63.0182 39.3191 66.6404 41.4745 70.6166 41.4745C72.6241 41.4745 74.501 41.0377 76.0443 40.2106ZM75.1052 36.3126C75.705 35.7215 76.0222 34.9927 76.0222 34.2055C76.0222 33.5585 75.8701 32.9674 75.5697 32.4494C75.41 32.1735 75.2043 31.9117 74.9588 31.6713C74.7749 31.492 74.4805 31.495 74.301 31.6787C74.1215 31.8628 74.1249 32.1574 74.3084 32.3371C74.4939 32.5185 74.6477 32.7136 74.7652 32.9161C74.9853 33.296 75.0921 33.7177 75.0921 34.2055C75.0921 34.7453 74.8768 35.2311 74.4527 35.6491C73.6727 36.4179 72.2835 36.8641 70.7438 36.8383C69.8302 36.8252 68.958 36.6083 68.2212 36.2117C67.6864 35.9237 67.3407 35.5153 67.112 35.2451C67.0681 35.1935 67.0286 35.1469 66.9931 35.107C66.8226 34.9146 66.5289 34.8978 66.3363 35.0688C66.1447 35.2398 66.1276 35.5338 66.2984 35.7259C66.3293 35.7611 66.3641 35.802 66.4023 35.8473C66.6598 36.1513 67.0905 36.6599 67.7805 37.0314C68.6479 37.4987 69.6681 37.7538 70.7298 37.7693C70.7737 37.7699 70.8169 37.7703 70.8604 37.7703C72.5953 37.7703 74.1748 37.2298 75.1052 36.3126ZM71.1196 30.2911C71.1826 30.042 71.0315 29.7885 70.7824 29.7258C70.4448 29.6407 70.0827 29.5569 69.7063 29.4774C65.0201 28.4891 62.9305 26.5178 62.9305 23.0848C62.9305 19.3169 66.0352 16.7847 70.6564 16.7847C73.4225 16.7847 76.9101 18.3346 78.0307 21.7371C78.1107 21.9811 78.3743 22.1142 78.6178 22.0338C78.8616 21.953 78.9943 21.6901 78.9139 21.4457C77.6486 17.6037 73.7464 15.854 70.6564 15.854C65.4789 15.854 62.0001 18.76 62.0001 23.0848C62.0001 28.2108 66.2887 29.7084 69.5144 30.3883C69.8787 30.4654 70.2287 30.5462 70.5549 30.6283C70.5931 30.6381 70.6313 30.6428 70.6692 30.6428C70.8771 30.6428 71.0664 30.5023 71.1196 30.2911ZM81.7363 34.1619C81.7363 31.3223 81.0781 29.4583 79.6018 28.118C79.4119 27.9453 79.1175 27.9601 78.945 28.1498C78.7725 28.3402 78.787 28.6346 78.9772 28.8076C80.2589 29.9716 80.8062 31.5731 80.8062 34.1619C80.8062 38.9051 76.5209 42.3482 70.6166 42.3482C66.6022 42.3482 62.7336 40.1492 60.9893 36.8768L60.9404 36.7863C60.8061 36.5416 60.5268 36.032 60.3007 35.282C60.2263 35.0356 59.9668 34.8958 59.7213 34.9709C59.4751 35.0453 59.3361 35.3048 59.4101 35.5509C59.6643 36.3944 59.9755 36.962 60.1252 37.2342L60.1684 37.3147C62.0701 40.8821 66.2686 43.2792 70.6166 43.2792C77.0598 43.2792 81.7363 39.4452 81.7363 34.1619ZM69.5505 31.9938C69.6195 31.7461 69.4752 31.4896 69.2277 31.4202C67.0138 30.8007 62.4073 29.5116 61.1815 25.3394C61.1092 25.093 60.8503 24.9512 60.6041 25.0246C60.3576 25.097 60.2166 25.3558 60.2893 25.6025C61.6608 30.2693 66.7878 31.7042 68.9771 32.317C69.019 32.3288 69.0612 32.3345 69.1027 32.3345C69.306 32.3345 69.4929 32.1997 69.5505 31.9938ZM60.9655 21.7907C61.6069 17.6962 65.3972 14.9787 70.4297 14.9787C70.5024 14.9787 70.576 14.9793 70.6494 14.9804C70.914 14.9777 71.1176 14.7792 71.1217 14.5221C71.1256 14.2653 70.9207 14.0537 70.6638 14.0497C65.0401 13.9551 60.7723 17.0147 60.0465 21.6462C60.0066 21.9007 60.1801 22.1387 60.4337 22.1783C60.4584 22.1826 60.4826 22.1843 60.5067 22.1843C60.7317 22.1843 60.9293 22.0204 60.9655 21.7907ZM80.492 21.9741C80.2465 21.9741 80.0412 21.7817 80.0278 21.5332C79.9582 20.9254 78.6557 17.2245 74.5867 15.6851C74.3466 15.5939 74.2253 15.3253 74.3161 15.0846C74.4069 14.8446 74.6751 14.7232 74.9156 14.8137C79.6376 16.601 80.9258 20.8973 80.9569 21.4839C80.9706 21.7404 80.7737 21.9597 80.5171 21.9734C80.5088 21.9741 80.5004 21.9741 80.492 21.9741Z" fill="white"/>
</svg>
