<svg width="16" height="16" viewBox="0 0 16 16" fill="none" xmlns="http://www.w3.org/2000/svg">
<path d="M10.2411 14.875H1.75C1.58424 14.875 1.42527 14.8092 1.30806 14.6919C1.19085 14.5747 1.125 14.4158 1.125 14.25V1.75C1.125 1.58424 1.19085 1.42527 1.30806 1.30806C1.42527 1.19085 1.58424 1.125 1.75 1.125H14.25C14.4158 1.125 14.5747 1.19085 14.6919 1.30806C14.8092 1.42527 14.875 1.58424 14.875 1.75V10.2411C14.875 10.3232 14.8588 10.4045 14.8274 10.4803C14.796 10.5561 14.75 10.625 14.6919 10.6831L10.6831 14.6919C10.625 14.75 10.5561 14.796 10.4803 14.8274C10.4045 14.8588 10.3232 14.875 10.2411 14.875V14.875Z" stroke="#727272" stroke-width="1.5" stroke-linecap="round" stroke-linejoin="round"/>
</svg>
