<svg width="20" height="20" viewBox="0 0 20 20" fill="none" xmlns="http://www.w3.org/2000/svg">
<path d="M10 13.75C12.0711 13.75 13.75 12.0711 13.75 10C13.75 7.92893 12.0711 6.25 10 6.25C7.92893 6.25 6.25 7.92893 6.25 10C6.25 12.0711 7.92893 13.75 10 13.75Z" stroke="#727272" stroke-width="1.5" stroke-linecap="round" stroke-linejoin="round"/>
<path d="M14.3489 5.0853C14.5491 5.26251 14.7383 5.45172 14.9155 5.65187L17.0501 5.95668C17.3962 6.55945 17.6631 7.20438 17.8441 7.87549L16.5508 9.59985C16.5508 9.59985 16.567 10.1342 16.5508 10.401L17.8447 12.1259C17.6632 12.7969 17.3959 13.4416 17.0493 14.0442L14.9155 14.349C14.9155 14.349 14.5492 14.7383 14.349 14.9155L14.0442 17.0501C13.4415 17.3962 12.7965 17.6631 12.1254 17.8441L10.4012 16.5508C10.1343 16.567 9.86675 16.567 9.59991 16.5508L7.87502 17.8447C7.20403 17.6632 6.55927 17.3959 5.95674 17.0493L5.65199 14.9156C5.45184 14.7384 5.26263 14.5492 5.08541 14.349L2.95085 14.0442C2.6047 13.4415 2.33781 12.7965 2.15681 12.1254L3.45013 10.4011C3.45013 10.4011 3.43386 9.86673 3.45008 9.59991L2.15625 7.87502C2.3377 7.20403 2.60503 6.55927 2.95159 5.95673L5.0853 5.65199C5.26251 5.45183 5.45172 5.26263 5.65187 5.08541L5.95668 2.95085C6.55945 2.6047 7.20438 2.33781 7.87549 2.15681L9.59974 3.45008C9.86658 3.43386 10.1342 3.43386 10.401 3.45008L12.1259 2.15625C12.7969 2.3377 13.4416 2.60503 14.0442 2.95159L14.3489 5.0853Z" stroke="#727272" stroke-width="1.5" stroke-linecap="round" stroke-linejoin="round"/>
</svg>
