<svg width="60" height="60" viewBox="0 0 60 60" fill="none" xmlns="http://www.w3.org/2000/svg">
<path d="M30 19.2002C27.6266 19.2002 25.3066 19.904 23.3332 21.2226C21.3598 22.5411 19.8217 24.4153 18.9135 26.608C18.0052 28.8007 17.7676 31.2135 18.2306 33.5413C18.6936 35.869 19.8365 38.0072 21.5147 39.6855C23.193 41.3637 25.3311 42.5066 27.6589 42.9696C29.9867 43.4326 32.3995 43.195 34.5922 42.2867C36.7849 41.3785 38.6591 39.8404 39.9776 37.867C41.2962 35.8936 42 33.5736 42 31.2002C42 28.0176 40.7357 24.9654 38.4853 22.7149C36.2348 20.4645 33.1826 19.2002 30 19.2002ZM30 40.8002C28.1013 40.8002 26.2452 40.2372 24.6665 39.1823C23.0878 38.1274 21.8574 36.6281 21.1308 34.874C20.4042 33.1198 20.214 31.1895 20.5845 29.3273C20.9549 27.4651 21.8692 25.7546 23.2118 24.412C24.5544 23.0694 26.2649 22.1551 28.1271 21.7847C29.9894 21.4142 31.9196 21.6043 33.6738 22.331C35.4279 23.0576 36.9272 24.288 37.9821 25.8667C39.037 27.4454 39.6 29.3015 39.6 31.2002C39.6 33.7463 38.5886 36.1881 36.7882 37.9884C34.9879 39.7888 32.5461 40.8002 30 40.8002Z" fill="#3F3F3F"/>
<path d="M45.6 14.4001H40.344L39.348 12.4081C38.8915 11.5917 38.2342 10.9054 37.4383 10.414C36.6425 9.9226 35.7344 9.64247 34.8 9.6001H25.2C24.2656 9.64247 23.3575 9.9226 22.5617 10.414C21.7658 10.9054 21.1085 11.5917 20.652 12.4081L19.656 14.4001H14.4C12.1722 14.4001 10.0356 15.2851 8.4603 16.8604C6.885 18.4357 6 20.5723 6 22.8001V42.0001C6 44.2279 6.885 46.3645 8.4603 47.9398C10.0356 49.5151 12.1722 50.4001 14.4 50.4001H45.6C47.8278 50.4001 49.9644 49.5151 51.5397 47.9398C53.115 46.3645 54 44.2279 54 42.0001V22.8001C54 20.5723 53.115 18.4357 51.5397 16.8604C49.9644 15.2851 47.8278 14.4001 45.6 14.4001ZM51.6 42.0001C51.6 43.5914 50.9679 45.1175 49.8426 46.2427C48.7174 47.368 47.1913 48.0001 45.6 48.0001H14.4C12.8087 48.0001 11.2826 47.368 10.1574 46.2427C9.03214 45.1175 8.4 43.5914 8.4 42.0001V22.8001C8.4 21.2088 9.03214 19.6827 10.1574 18.5575C11.2826 17.4322 12.8087 16.8001 14.4 16.8001H20.4C20.6216 16.7994 20.8387 16.7374 21.0272 16.6209C21.2157 16.5044 21.3683 16.338 21.468 16.1401L22.8 13.4881C23.0519 13.0662 23.4013 12.7109 23.8189 12.452C24.2365 12.1931 24.7101 12.0381 25.2 12.0001H34.8C35.2899 12.0381 35.7635 12.1931 36.1811 12.452C36.5987 12.7109 36.9481 13.0662 37.2 13.4881L38.532 16.1401C38.6317 16.338 38.7843 16.5044 38.9728 16.6209C39.1613 16.7374 39.3784 16.7994 39.6 16.8001H45.6C47.1913 16.8001 48.7174 17.4322 49.8426 18.5575C50.9679 19.6827 51.6 21.2088 51.6 22.8001V42.0001Z" fill="#3F3F3F"/>
</svg>
